%TF.GenerationSoftware,KiCad,Pcbnew,7.0.6*%
%TF.CreationDate,2023-08-23T22:51:32+03:00*%
%TF.ProjectId,Lorawan_prototype_v1.1,4c6f7261-7761-46e5-9f70-726f746f7479,rev?*%
%TF.SameCoordinates,Original*%
%TF.FileFunction,Soldermask,Top*%
%TF.FilePolarity,Negative*%
%FSLAX46Y46*%
G04 Gerber Fmt 4.6, Leading zero omitted, Abs format (unit mm)*
G04 Created by KiCad (PCBNEW 7.0.6) date 2023-08-23 22:51:32*
%MOMM*%
%LPD*%
G01*
G04 APERTURE LIST*
G04 Aperture macros list*
%AMRoundRect*
0 Rectangle with rounded corners*
0 $1 Rounding radius*
0 $2 $3 $4 $5 $6 $7 $8 $9 X,Y pos of 4 corners*
0 Add a 4 corners polygon primitive as box body*
4,1,4,$2,$3,$4,$5,$6,$7,$8,$9,$2,$3,0*
0 Add four circle primitives for the rounded corners*
1,1,$1+$1,$2,$3*
1,1,$1+$1,$4,$5*
1,1,$1+$1,$6,$7*
1,1,$1+$1,$8,$9*
0 Add four rect primitives between the rounded corners*
20,1,$1+$1,$2,$3,$4,$5,0*
20,1,$1+$1,$4,$5,$6,$7,0*
20,1,$1+$1,$6,$7,$8,$9,0*
20,1,$1+$1,$8,$9,$2,$3,0*%
G04 Aperture macros list end*
%ADD10RoundRect,0.250000X-0.600000X-0.600000X0.600000X-0.600000X0.600000X0.600000X-0.600000X0.600000X0*%
%ADD11C,1.700000*%
%ADD12RoundRect,0.200000X0.275000X-0.200000X0.275000X0.200000X-0.275000X0.200000X-0.275000X-0.200000X0*%
%ADD13C,1.000000*%
%ADD14R,0.700000X1.600000*%
%ADD15R,1.600000X1.500000*%
%ADD16R,1.200000X2.200000*%
%ADD17R,1.200000X1.800000*%
%ADD18RoundRect,0.237500X0.237500X-0.250000X0.237500X0.250000X-0.237500X0.250000X-0.237500X-0.250000X0*%
%ADD19R,2.200000X0.650000*%
%ADD20R,2.300000X0.650000*%
%ADD21C,2.390000*%
%ADD22C,3.450000*%
%ADD23RoundRect,0.200000X-0.275000X0.200000X-0.275000X-0.200000X0.275000X-0.200000X0.275000X0.200000X0*%
%ADD24RoundRect,0.218750X-0.256250X0.218750X-0.256250X-0.218750X0.256250X-0.218750X0.256250X0.218750X0*%
%ADD25RoundRect,0.250000X0.475000X-0.250000X0.475000X0.250000X-0.475000X0.250000X-0.475000X-0.250000X0*%
%ADD26RoundRect,0.225000X-0.250000X0.225000X-0.250000X-0.225000X0.250000X-0.225000X0.250000X0.225000X0*%
%ADD27R,0.650000X2.200000*%
%ADD28R,0.650000X2.300000*%
%ADD29R,2.971000X2.184000*%
%ADD30R,0.700000X1.526000*%
%ADD31R,2.280000X2.120000*%
%ADD32R,2.120000X2.280000*%
%ADD33RoundRect,0.250000X0.850000X0.350000X-0.850000X0.350000X-0.850000X-0.350000X0.850000X-0.350000X0*%
%ADD34RoundRect,0.249997X2.950003X2.650003X-2.950003X2.650003X-2.950003X-2.650003X2.950003X-2.650003X0*%
%ADD35C,0.800000*%
%ADD36C,6.000000*%
%ADD37RoundRect,0.218750X-0.218750X-0.256250X0.218750X-0.256250X0.218750X0.256250X-0.218750X0.256250X0*%
%ADD38RoundRect,0.225000X0.225000X0.250000X-0.225000X0.250000X-0.225000X-0.250000X0.225000X-0.250000X0*%
%ADD39RoundRect,0.237500X-0.237500X0.250000X-0.237500X-0.250000X0.237500X-0.250000X0.237500X0.250000X0*%
%ADD40RoundRect,0.200000X0.200000X0.275000X-0.200000X0.275000X-0.200000X-0.275000X0.200000X-0.275000X0*%
%ADD41RoundRect,0.150000X0.512500X0.150000X-0.512500X0.150000X-0.512500X-0.150000X0.512500X-0.150000X0*%
%ADD42RoundRect,0.200000X-0.200000X-0.275000X0.200000X-0.275000X0.200000X0.275000X-0.200000X0.275000X0*%
%ADD43RoundRect,0.250000X-0.250000X-0.475000X0.250000X-0.475000X0.250000X0.475000X-0.250000X0.475000X0*%
%ADD44RoundRect,0.225000X-0.225000X-0.250000X0.225000X-0.250000X0.225000X0.250000X-0.225000X0.250000X0*%
%ADD45RoundRect,0.150000X-0.587500X-0.150000X0.587500X-0.150000X0.587500X0.150000X-0.587500X0.150000X0*%
%ADD46RoundRect,0.096000X0.889000X0.204000X-0.889000X0.204000X-0.889000X-0.204000X0.889000X-0.204000X0*%
%ADD47R,2.410000X3.300000*%
%ADD48R,2.200000X1.500000*%
%ADD49RoundRect,0.250000X-0.475000X0.250000X-0.475000X-0.250000X0.475000X-0.250000X0.475000X0.250000X0*%
%ADD50C,1.600000*%
%ADD51R,2.000000X4.000000*%
%ADD52O,2.000000X3.300000*%
%ADD53O,3.500000X2.000000*%
%ADD54RoundRect,0.218750X0.218750X0.256250X-0.218750X0.256250X-0.218750X-0.256250X0.218750X-0.256250X0*%
%ADD55RoundRect,0.225000X0.250000X-0.225000X0.250000X0.225000X-0.250000X0.225000X-0.250000X-0.225000X0*%
%ADD56RoundRect,0.250000X0.250000X0.475000X-0.250000X0.475000X-0.250000X-0.475000X0.250000X-0.475000X0*%
%ADD57RoundRect,0.150000X-0.825000X-0.150000X0.825000X-0.150000X0.825000X0.150000X-0.825000X0.150000X0*%
%ADD58R,0.500000X0.350000*%
%ADD59RoundRect,0.150000X-0.512500X-0.150000X0.512500X-0.150000X0.512500X0.150000X-0.512500X0.150000X0*%
%ADD60RoundRect,0.237500X-0.287500X-0.237500X0.287500X-0.237500X0.287500X0.237500X-0.287500X0.237500X0*%
%ADD61R,1.550000X1.300000*%
%ADD62R,0.400000X0.575000*%
%ADD63R,0.400000X0.675000*%
%ADD64R,2.600000X1.950000*%
%ADD65RoundRect,0.050000X-0.100000X-0.100000X0.100000X-0.100000X0.100000X0.100000X-0.100000X0.100000X0*%
%ADD66O,0.950000X0.300000*%
%ADD67R,2.500000X1.000000*%
%ADD68RoundRect,0.237500X0.250000X0.237500X-0.250000X0.237500X-0.250000X-0.237500X0.250000X-0.237500X0*%
%ADD69RoundRect,0.075000X-0.700000X-0.075000X0.700000X-0.075000X0.700000X0.075000X-0.700000X0.075000X0*%
%ADD70RoundRect,0.075000X-0.075000X-0.700000X0.075000X-0.700000X0.075000X0.700000X-0.075000X0.700000X0*%
%ADD71RoundRect,0.150000X-0.150000X-0.700000X0.150000X-0.700000X0.150000X0.700000X-0.150000X0.700000X0*%
%ADD72RoundRect,0.250000X-0.250000X-1.150000X0.250000X-1.150000X0.250000X1.150000X-0.250000X1.150000X0*%
%ADD73R,1.600000X1.600000*%
%ADD74RoundRect,0.250000X0.625000X-0.375000X0.625000X0.375000X-0.625000X0.375000X-0.625000X-0.375000X0*%
%ADD75R,1.400000X0.400000*%
%ADD76O,1.900000X1.050000*%
%ADD77R,1.450000X1.150000*%
%ADD78R,1.900000X1.750000*%
%ADD79R,1.800000X0.700000*%
%ADD80R,0.700000X1.800000*%
%ADD81RoundRect,0.062500X0.062500X-0.375000X0.062500X0.375000X-0.062500X0.375000X-0.062500X-0.375000X0*%
%ADD82RoundRect,0.062500X0.375000X-0.062500X0.375000X0.062500X-0.375000X0.062500X-0.375000X-0.062500X0*%
%ADD83R,1.500000X2.000000*%
%ADD84R,3.800000X2.000000*%
%ADD85C,1.500000*%
G04 APERTURE END LIST*
D10*
%TO.C,J3*%
X192370000Y-84810000D03*
D11*
X194910000Y-84810000D03*
X192370000Y-87350000D03*
X194910000Y-87350000D03*
X192370000Y-89890000D03*
X194910000Y-89890000D03*
X192370000Y-92430000D03*
X194910000Y-92430000D03*
X192370000Y-94970000D03*
X194910000Y-94970000D03*
%TD*%
D12*
%TO.C,R40*%
X126350000Y-117950000D03*
X126350000Y-116300000D03*
%TD*%
D13*
%TO.C,J7*%
X134480000Y-116740000D03*
X142480000Y-116740000D03*
D14*
X141680000Y-105740000D03*
X140580000Y-105740000D03*
X139480000Y-105740000D03*
X138380000Y-105740000D03*
X137280000Y-105740000D03*
X136180000Y-105740000D03*
X135080000Y-105740000D03*
X133980000Y-105740000D03*
X132880000Y-105740000D03*
D15*
X146280000Y-106790000D03*
D16*
X147180000Y-116340000D03*
X131680000Y-116340000D03*
D17*
X131680000Y-107040000D03*
%TD*%
D18*
%TO.C,R1*%
X138480000Y-101790000D03*
X138480000Y-99965000D03*
%TD*%
D19*
%TO.C,BT1*%
X134660000Y-73010000D03*
D20*
X134710000Y-71510000D03*
%TD*%
D21*
%TO.C,BT2*%
X112280000Y-80190000D03*
D22*
X120610000Y-64190000D03*
X175810000Y-80190000D03*
%TD*%
D12*
%TO.C,R39*%
X129070000Y-117920000D03*
X129070000Y-116270000D03*
%TD*%
%TO.C,R38*%
X126630000Y-106290000D03*
X126630000Y-104640000D03*
%TD*%
%TO.C,R37*%
X129250000Y-106280000D03*
X129250000Y-104630000D03*
%TD*%
D23*
%TO.C,R36*%
X151390000Y-117410000D03*
X151390000Y-119060000D03*
%TD*%
D24*
%TO.C,D12*%
X149770000Y-117450000D03*
X149770000Y-119025000D03*
%TD*%
D25*
%TO.C,C44*%
X136610000Y-101790000D03*
X136610000Y-99890000D03*
%TD*%
D26*
%TO.C,C43*%
X140130000Y-100180000D03*
X140130000Y-101730000D03*
%TD*%
D27*
%TO.C,BT3*%
X156310000Y-98330000D03*
D28*
X157810000Y-98380000D03*
%TD*%
D29*
%TO.C,U11*%
X123685000Y-88348000D03*
D30*
X121780000Y-85636000D03*
X123050000Y-85636000D03*
X124320000Y-85636000D03*
X125590000Y-85636000D03*
X125590000Y-91060000D03*
X124320000Y-91060000D03*
X123050000Y-91060000D03*
X121780000Y-91060000D03*
%TD*%
D12*
%TO.C,R35*%
X121750000Y-67180000D03*
X121750000Y-68830000D03*
%TD*%
D23*
%TO.C,R34*%
X120110000Y-68820000D03*
X120110000Y-67170000D03*
%TD*%
D31*
%TO.C,D3*%
X112240000Y-108620000D03*
X116570000Y-108620000D03*
%TD*%
D32*
%TO.C,D10*%
X121770000Y-75830000D03*
X121770000Y-80160000D03*
%TD*%
%TO.C,D4*%
X127950000Y-112720000D03*
X127950000Y-108390000D03*
%TD*%
D33*
%TO.C,Q1*%
X116605000Y-116735000D03*
X116605000Y-112175000D03*
D34*
X110305000Y-114455000D03*
%TD*%
D35*
%TO.C,H3*%
X99489010Y-63600990D03*
X100148020Y-62010000D03*
X100148020Y-65191980D03*
X101739010Y-61350990D03*
D36*
X101739010Y-63600990D03*
D35*
X101739010Y-65850990D03*
X103330000Y-62010000D03*
X103330000Y-65191980D03*
X103989010Y-63600990D03*
%TD*%
D12*
%TO.C,R33*%
X146370000Y-69620000D03*
X146370000Y-67970000D03*
%TD*%
D35*
%TO.C,H1*%
X192380000Y-116540000D03*
X193039010Y-114949010D03*
X193039010Y-118130990D03*
X194630000Y-114290000D03*
D36*
X194630000Y-116540000D03*
D35*
X194630000Y-118790000D03*
X196220990Y-114949010D03*
X196220990Y-118130990D03*
X196880000Y-116540000D03*
%TD*%
D26*
%TO.C,C15*%
X143530000Y-97900000D03*
X143530000Y-99450000D03*
%TD*%
D37*
%TO.C,L2*%
X138710000Y-92430000D03*
X140285000Y-92430000D03*
%TD*%
D38*
%TO.C,C27*%
X160090000Y-90390000D03*
X158540000Y-90390000D03*
%TD*%
D39*
%TO.C,R5*%
X185310000Y-70420000D03*
X185310000Y-72245000D03*
%TD*%
D40*
%TO.C,R2*%
X185950000Y-84110000D03*
X184300000Y-84110000D03*
%TD*%
%TO.C,R10*%
X121610000Y-95680000D03*
X119960000Y-95680000D03*
%TD*%
D41*
%TO.C,U1*%
X187570000Y-75900000D03*
X187570000Y-74950000D03*
X187570000Y-74000000D03*
X185295000Y-74000000D03*
X185295000Y-74950000D03*
X185295000Y-75900000D03*
%TD*%
D42*
%TO.C,R8*%
X108430000Y-109950000D03*
X110080000Y-109950000D03*
%TD*%
D43*
%TO.C,C26*%
X180330000Y-101090000D03*
X182230000Y-101090000D03*
%TD*%
D40*
%TO.C,R26*%
X122940000Y-93270000D03*
X121290000Y-93270000D03*
%TD*%
D44*
%TO.C,C38*%
X124690000Y-75710000D03*
X126240000Y-75710000D03*
%TD*%
%TO.C,C8*%
X121670000Y-100690000D03*
X123220000Y-100690000D03*
%TD*%
D38*
%TO.C,C3*%
X131060000Y-87150000D03*
X129510000Y-87150000D03*
%TD*%
D40*
%TO.C,R6*%
X123270000Y-99020000D03*
X121620000Y-99020000D03*
%TD*%
D45*
%TO.C,Q2*%
X183755000Y-88990000D03*
X183755000Y-90890000D03*
X185630000Y-89940000D03*
%TD*%
D40*
%TO.C,R18*%
X105030000Y-81630000D03*
X106680000Y-81630000D03*
%TD*%
D46*
%TO.C,U2*%
X118980000Y-103780000D03*
X118980000Y-102510000D03*
X118980000Y-101240000D03*
X118980000Y-99970000D03*
X114030000Y-99970000D03*
X114030000Y-101240000D03*
X114030000Y-102510000D03*
X114030000Y-103780000D03*
D47*
X116505000Y-101875000D03*
%TD*%
D48*
%TO.C,L1*%
X121870000Y-114370000D03*
X121870000Y-107970000D03*
%TD*%
D26*
%TO.C,C41*%
X155010000Y-113740000D03*
X155010000Y-115290000D03*
%TD*%
D23*
%TO.C,R14*%
X101170000Y-70420000D03*
X101170000Y-72070000D03*
%TD*%
D49*
%TO.C,C21*%
X106280000Y-74830000D03*
X106280000Y-76730000D03*
%TD*%
D50*
%TO.C,J2*%
X100700000Y-90170000D03*
D51*
X109700000Y-90170000D03*
D52*
X103700000Y-90170000D03*
D53*
X102700000Y-85670000D03*
X102700000Y-94670000D03*
%TD*%
D26*
%TO.C,C42*%
X149780000Y-114400000D03*
X149780000Y-115950000D03*
%TD*%
D40*
%TO.C,R17*%
X187650000Y-103180000D03*
X186000000Y-103180000D03*
%TD*%
D54*
%TO.C,D2*%
X185905000Y-82450000D03*
X184330000Y-82450000D03*
%TD*%
D26*
%TO.C,C11*%
X151730000Y-97900000D03*
X151730000Y-99450000D03*
%TD*%
D55*
%TO.C,C29*%
X109430000Y-67880000D03*
X109430000Y-66330000D03*
%TD*%
D25*
%TO.C,C22*%
X107570000Y-64880000D03*
X107570000Y-62980000D03*
%TD*%
D38*
%TO.C,C2*%
X130852113Y-77270000D03*
X132402113Y-77270000D03*
%TD*%
%TO.C,C14*%
X140280000Y-94070000D03*
X138730000Y-94070000D03*
%TD*%
D54*
%TO.C,D6*%
X101810000Y-81630000D03*
X103385000Y-81630000D03*
%TD*%
D44*
%TO.C,C34*%
X189160000Y-109630000D03*
X190710000Y-109630000D03*
%TD*%
D56*
%TO.C,C25*%
X160460000Y-92240000D03*
X158560000Y-92240000D03*
%TD*%
D44*
%TO.C,C18*%
X186055000Y-101610000D03*
X187605000Y-101610000D03*
%TD*%
%TO.C,C30*%
X189160000Y-108030000D03*
X190710000Y-108030000D03*
%TD*%
D12*
%TO.C,R23*%
X156580000Y-109500000D03*
X156580000Y-107850000D03*
%TD*%
D57*
%TO.C,U9*%
X182140000Y-108030000D03*
X182140000Y-109300000D03*
X182140000Y-110570000D03*
X182140000Y-111840000D03*
X182140000Y-113110000D03*
X182140000Y-114380000D03*
X182140000Y-115650000D03*
X182140000Y-116920000D03*
X187090000Y-116920000D03*
X187090000Y-115650000D03*
X187090000Y-114380000D03*
X187090000Y-113110000D03*
X187090000Y-111840000D03*
X187090000Y-110570000D03*
X187090000Y-109300000D03*
X187090000Y-108030000D03*
%TD*%
D38*
%TO.C,C4*%
X131050000Y-90940000D03*
X129500000Y-90940000D03*
%TD*%
D42*
%TO.C,R21*%
X184295000Y-85690000D03*
X185945000Y-85690000D03*
%TD*%
D38*
%TO.C,C1*%
X140250000Y-90840000D03*
X138700000Y-90840000D03*
%TD*%
D58*
%TO.C,U12*%
X151430000Y-115040000D03*
X151430000Y-114390000D03*
X151430000Y-113740000D03*
X151430000Y-113090000D03*
X153480000Y-113090000D03*
X153480000Y-113740000D03*
X153480000Y-114390000D03*
X153480000Y-115040000D03*
%TD*%
D59*
%TO.C,U5*%
X164725000Y-79700000D03*
X164725000Y-80650000D03*
X164725000Y-81600000D03*
X167000000Y-81600000D03*
X167000000Y-79700000D03*
%TD*%
D38*
%TO.C,C5*%
X130827113Y-79170000D03*
X132377113Y-79170000D03*
%TD*%
D60*
%TO.C,D1*%
X187710000Y-77500000D03*
X185960000Y-77500000D03*
%TD*%
D12*
%TO.C,R4*%
X111890000Y-98480000D03*
X111890000Y-96830000D03*
%TD*%
D38*
%TO.C,C7*%
X115070000Y-105700000D03*
X113520000Y-105700000D03*
%TD*%
D61*
%TO.C,SW1*%
X134520000Y-101390000D03*
X126560000Y-101390000D03*
X134520000Y-96890000D03*
X126560000Y-96890000D03*
%TD*%
D62*
%TO.C,U7*%
X114375000Y-67965000D03*
D63*
X114375000Y-67912500D03*
X114375000Y-65287500D03*
D62*
X114375000Y-65235000D03*
D64*
X113275000Y-66600000D03*
X113275000Y-66600000D03*
D62*
X112175000Y-67965000D03*
D63*
X112175000Y-67912500D03*
X112175000Y-65287500D03*
D62*
X112175000Y-65235000D03*
D65*
X115575000Y-65600000D03*
D66*
X115250000Y-65600000D03*
D65*
X115575000Y-66000000D03*
D66*
X115250000Y-66000000D03*
D65*
X115575000Y-66400000D03*
D66*
X115250000Y-66400000D03*
D65*
X115575000Y-66800000D03*
D66*
X115250000Y-66800000D03*
D65*
X115575000Y-67200000D03*
D66*
X115250000Y-67200000D03*
D65*
X115575000Y-67600000D03*
D66*
X115250000Y-67600000D03*
X111300000Y-67600000D03*
D65*
X110975000Y-67600000D03*
D66*
X111300000Y-67200000D03*
D65*
X110975000Y-67200000D03*
D66*
X111300000Y-66800000D03*
D65*
X110975000Y-66800000D03*
D66*
X111300000Y-66400000D03*
D65*
X110975000Y-66400000D03*
D66*
X111300000Y-66000000D03*
D65*
X110975000Y-66000000D03*
D66*
X111300000Y-65600000D03*
D65*
X110975000Y-65600000D03*
%TD*%
D26*
%TO.C,C10*%
X145210000Y-97890000D03*
X145210000Y-99440000D03*
%TD*%
D42*
%TO.C,R19*%
X105010000Y-79990000D03*
X106660000Y-79990000D03*
%TD*%
D26*
%TO.C,C24*%
X168920000Y-79690000D03*
X168920000Y-81240000D03*
%TD*%
D44*
%TO.C,C40*%
X124690000Y-74090000D03*
X126240000Y-74090000D03*
%TD*%
D12*
%TO.C,R12*%
X158150000Y-115340000D03*
X158150000Y-113690000D03*
%TD*%
D26*
%TO.C,C32*%
X131390000Y-70720000D03*
X131390000Y-72270000D03*
%TD*%
%TO.C,C39*%
X125770000Y-70770000D03*
X125770000Y-72320000D03*
%TD*%
D42*
%TO.C,R30*%
X124680000Y-83310000D03*
X126330000Y-83310000D03*
%TD*%
D67*
%TO.C,U8*%
X163660000Y-84840000D03*
X163660000Y-87380000D03*
X163660000Y-89920000D03*
X163660000Y-92460000D03*
X163660000Y-95000000D03*
X163660000Y-97540000D03*
X179160000Y-97540000D03*
X179160000Y-95000000D03*
X179160000Y-92460000D03*
X179160000Y-89920000D03*
X179160000Y-87380000D03*
X179160000Y-84840000D03*
%TD*%
D26*
%TO.C,C37*%
X128590000Y-72300000D03*
X128590000Y-70750000D03*
%TD*%
D68*
%TO.C,R24*%
X187580000Y-104750000D03*
X185755000Y-104750000D03*
%TD*%
D44*
%TO.C,C28*%
X180340000Y-102930000D03*
X181890000Y-102930000D03*
%TD*%
D56*
%TO.C,C35*%
X160460000Y-94370000D03*
X158560000Y-94370000D03*
%TD*%
D26*
%TO.C,C20*%
X162830000Y-79700000D03*
X162830000Y-81250000D03*
%TD*%
D44*
%TO.C,C12*%
X156040000Y-86560000D03*
X157590000Y-86560000D03*
%TD*%
D43*
%TO.C,C16*%
X155710000Y-83340000D03*
X157610000Y-83340000D03*
%TD*%
D69*
%TO.C,U3*%
X142555000Y-86420000D03*
X142555000Y-86920000D03*
X142555000Y-87420000D03*
X142555000Y-87920000D03*
X142555000Y-88420000D03*
X142555000Y-88920000D03*
X142555000Y-89420000D03*
X142555000Y-89920000D03*
X142555000Y-90420000D03*
X142555000Y-90920000D03*
X142555000Y-91420000D03*
X142555000Y-91920000D03*
X142555000Y-92420000D03*
X142555000Y-92920000D03*
X142555000Y-93420000D03*
X142555000Y-93920000D03*
D70*
X144480000Y-95845000D03*
X144980000Y-95845000D03*
X145480000Y-95845000D03*
X145980000Y-95845000D03*
X146480000Y-95845000D03*
X146980000Y-95845000D03*
X147480000Y-95845000D03*
X147980000Y-95845000D03*
X148480000Y-95845000D03*
X148980000Y-95845000D03*
X149480000Y-95845000D03*
X149980000Y-95845000D03*
X150480000Y-95845000D03*
X150980000Y-95845000D03*
X151480000Y-95845000D03*
X151980000Y-95845000D03*
D69*
X153905000Y-93920000D03*
X153905000Y-93420000D03*
X153905000Y-92920000D03*
X153905000Y-92420000D03*
X153905000Y-91920000D03*
X153905000Y-91420000D03*
X153905000Y-90920000D03*
X153905000Y-90420000D03*
X153905000Y-89920000D03*
X153905000Y-89420000D03*
X153905000Y-88920000D03*
X153905000Y-88420000D03*
X153905000Y-87920000D03*
X153905000Y-87420000D03*
X153905000Y-86920000D03*
X153905000Y-86420000D03*
D70*
X151980000Y-84495000D03*
X151480000Y-84495000D03*
X150980000Y-84495000D03*
X150480000Y-84495000D03*
X149980000Y-84495000D03*
X149480000Y-84495000D03*
X148980000Y-84495000D03*
X148480000Y-84495000D03*
X147980000Y-84495000D03*
X147480000Y-84495000D03*
X146980000Y-84495000D03*
X146480000Y-84495000D03*
X145980000Y-84495000D03*
X145480000Y-84495000D03*
X144980000Y-84495000D03*
X144480000Y-84495000D03*
%TD*%
D12*
%TO.C,R32*%
X148010000Y-69630000D03*
X148010000Y-67980000D03*
%TD*%
D71*
%TO.C,J5*%
X151440000Y-65700000D03*
X152690000Y-65700000D03*
X153940000Y-65700000D03*
X155190000Y-65700000D03*
X156440000Y-65700000D03*
X157690000Y-65700000D03*
X158940000Y-65700000D03*
X160190000Y-65700000D03*
D72*
X149590000Y-62350000D03*
X162040000Y-62350000D03*
%TD*%
D13*
%TO.C,Y1*%
X134100000Y-79130000D03*
X134100000Y-77230000D03*
%TD*%
D24*
%TO.C,D11*%
X159810000Y-107895000D03*
X159810000Y-109470000D03*
%TD*%
D23*
%TO.C,R28*%
X158160000Y-107855000D03*
X158160000Y-109505000D03*
%TD*%
D44*
%TO.C,C36*%
X158520000Y-96190000D03*
X160070000Y-96190000D03*
%TD*%
D12*
%TO.C,R31*%
X144790000Y-69620000D03*
X144790000Y-67970000D03*
%TD*%
D54*
%TO.C,D5*%
X101810000Y-80010000D03*
X103385000Y-80010000D03*
%TD*%
D71*
%TO.C,J6*%
X136150000Y-65680000D03*
X137400000Y-65680000D03*
X138650000Y-65680000D03*
X139900000Y-65680000D03*
X141150000Y-65680000D03*
X142400000Y-65680000D03*
X143650000Y-65680000D03*
X144900000Y-65680000D03*
D72*
X134300000Y-62330000D03*
X146750000Y-62330000D03*
%TD*%
D40*
%TO.C,R27*%
X106670000Y-83220000D03*
X105020000Y-83220000D03*
%TD*%
D23*
%TO.C,R13*%
X102830000Y-73990000D03*
X102830000Y-75640000D03*
%TD*%
D26*
%TO.C,C23*%
X116860000Y-68760000D03*
X116860000Y-67210000D03*
%TD*%
D73*
%TO.C,C6*%
X109740000Y-102590000D03*
D50*
X107240000Y-102590000D03*
%TD*%
D56*
%TO.C,C9*%
X123190000Y-116720000D03*
X121290000Y-116720000D03*
%TD*%
D74*
%TO.C,D7*%
X154520000Y-110860000D03*
X154520000Y-108060000D03*
%TD*%
D40*
%TO.C,R20*%
X185950000Y-87310000D03*
X184300000Y-87310000D03*
%TD*%
D75*
%TO.C,J4*%
X192850000Y-106485000D03*
X192850000Y-105835000D03*
X192850000Y-105185000D03*
X192850000Y-104535000D03*
X192850000Y-103885000D03*
D76*
X195500000Y-108760000D03*
D77*
X193270000Y-107505000D03*
D78*
X195500000Y-106310000D03*
X195500000Y-104060000D03*
D77*
X193270000Y-102865000D03*
D76*
X195500000Y-101610000D03*
%TD*%
D75*
%TO.C,J1*%
X192770000Y-75875000D03*
X192770000Y-75225000D03*
X192770000Y-74575000D03*
X192770000Y-73925000D03*
X192770000Y-73275000D03*
D76*
X195420000Y-78150000D03*
D77*
X193190000Y-76895000D03*
D78*
X195420000Y-75700000D03*
X195420000Y-73450000D03*
D77*
X193190000Y-72255000D03*
D76*
X195420000Y-71000000D03*
%TD*%
D12*
%TO.C,R9*%
X159840000Y-115330000D03*
X159840000Y-113680000D03*
%TD*%
D35*
%TO.C,H2*%
X104000000Y-116660000D03*
X103340990Y-118250990D03*
X103340990Y-115069010D03*
X101750000Y-118910000D03*
D36*
X101750000Y-116660000D03*
D35*
X101750000Y-114410000D03*
X100159010Y-118250990D03*
X100159010Y-115069010D03*
X99500000Y-116660000D03*
%TD*%
D23*
%TO.C,R29*%
X124680000Y-79940000D03*
X124680000Y-81590000D03*
%TD*%
%TO.C,R16*%
X101180000Y-73980000D03*
X101180000Y-75630000D03*
%TD*%
D42*
%TO.C,R7*%
X121620000Y-103940000D03*
X123270000Y-103940000D03*
%TD*%
%TO.C,R3*%
X121620000Y-102330000D03*
X123270000Y-102330000D03*
%TD*%
D68*
%TO.C,R25*%
X187570000Y-106310000D03*
X185745000Y-106310000D03*
%TD*%
D79*
%TO.C,U6*%
X163510000Y-102940000D03*
X163510000Y-103940000D03*
X163510000Y-104940000D03*
X163510000Y-105940000D03*
X163510000Y-106940000D03*
X163510000Y-107940000D03*
X163510000Y-108940000D03*
X163510000Y-109940000D03*
X163510000Y-110940000D03*
X163510000Y-111940000D03*
X163510000Y-112940000D03*
X163510000Y-113940000D03*
D80*
X171465000Y-116075000D03*
X172465000Y-116075000D03*
X173465000Y-116075000D03*
X174465000Y-116075000D03*
D79*
X178310000Y-113940000D03*
X178310000Y-112940000D03*
X178310000Y-111940000D03*
X178310000Y-106940000D03*
X178310000Y-105940000D03*
X178310000Y-104940000D03*
X178310000Y-103940000D03*
X178310000Y-102940000D03*
D80*
X174465000Y-101275000D03*
X173465000Y-101275000D03*
X172465000Y-101275000D03*
X171465000Y-101275000D03*
X170465000Y-101275000D03*
X169465000Y-101275000D03*
X168465000Y-101275000D03*
X167465000Y-101275000D03*
X166455000Y-101275000D03*
X165455000Y-101275000D03*
%TD*%
D12*
%TO.C,R22*%
X118490000Y-67160000D03*
X118490000Y-68810000D03*
%TD*%
%TO.C,R15*%
X105790000Y-68355000D03*
X105790000Y-66705000D03*
%TD*%
D42*
%TO.C,R11*%
X119960000Y-97250000D03*
X121610000Y-97250000D03*
%TD*%
D37*
%TO.C,D9*%
X101830000Y-83250000D03*
X103405000Y-83250000D03*
%TD*%
D26*
%TO.C,C19*%
X102810000Y-70470000D03*
X102810000Y-72020000D03*
%TD*%
D56*
%TO.C,C17*%
X140260000Y-95910000D03*
X138360000Y-95910000D03*
%TD*%
D81*
%TO.C,U4*%
X105532500Y-73217500D03*
X106032500Y-73217500D03*
X106532500Y-73217500D03*
X107032500Y-73217500D03*
D82*
X107720000Y-72530000D03*
X107720000Y-72030000D03*
X107720000Y-71530000D03*
X107720000Y-71030000D03*
D81*
X107032500Y-70342500D03*
X106532500Y-70342500D03*
X106032500Y-70342500D03*
X105532500Y-70342500D03*
D82*
X104845000Y-71030000D03*
X104845000Y-71530000D03*
X104845000Y-72030000D03*
X104845000Y-72530000D03*
D73*
X106282500Y-71780000D03*
%TD*%
D83*
%TO.C,U10*%
X131390000Y-68570000D03*
D84*
X129090000Y-62270000D03*
D83*
X129090000Y-68570000D03*
X126790000Y-68570000D03*
%TD*%
D55*
%TO.C,C13*%
X144650000Y-82700000D03*
X144650000Y-81150000D03*
%TD*%
D35*
%TO.C,H4*%
X192479010Y-63660990D03*
X193138020Y-62070000D03*
X193138020Y-65251980D03*
X194729010Y-61410990D03*
D36*
X194729010Y-63660990D03*
D35*
X194729010Y-65910990D03*
X196320000Y-62070000D03*
X196320000Y-65251980D03*
X196979010Y-63660990D03*
%TD*%
D48*
%TO.C,L3*%
X116660000Y-84660000D03*
X116660000Y-91060000D03*
%TD*%
D44*
%TO.C,C31*%
X124540000Y-94970000D03*
X126090000Y-94970000D03*
%TD*%
%TO.C,C33*%
X124540000Y-93270000D03*
X126090000Y-93270000D03*
%TD*%
D85*
%TO.C,Y2*%
X134260000Y-87140000D03*
X134260000Y-90940000D03*
%TD*%
D60*
%TO.C,D8*%
X189270000Y-112420000D03*
X191020000Y-112420000D03*
%TD*%
M02*
