M48
; DRILL file {KiCad 7.0.6} date Wed Aug 23 22:51:46 2023
; FORMAT={-:-/ absolute / inch / decimal}
; #@! TF.CreationDate,2023-08-23T22:51:46+03:00
; #@! TF.GenerationSoftware,Kicad,Pcbnew,7.0.6
; #@! TF.FileFunction,Plated,1,2,PTH
FMAT,2
INCH
; #@! TA.AperFunction,Plated,PTH,ComponentDrill
T1C0.0118
; #@! TA.AperFunction,Plated,PTH,ViaDrill
T2C0.0157
; #@! TA.AperFunction,Plated,PTH,ComponentDrill
T3C0.0177
; #@! TA.AperFunction,Plated,PTH,ComponentDrill
T4C0.0197
; #@! TA.AperFunction,Plated,PTH,ComponentDrill
T5C0.0315
; #@! TA.AperFunction,Plated,PTH,ComponentDrill
T6C0.0394
; #@! TA.AperFunction,Plated,PTH,ComponentDrill
T7C0.1181
%
G90
G05
T1
X4.4242Y-2.6024
X4.4242Y-2.6417
X4.4596Y-2.6024
X4.4596Y-2.6417
X4.4951Y-2.6024
X4.4951Y-2.6417
T2
X3.905Y-2.7619
X3.9283Y-2.8374
X3.9366Y-3.3106
X3.9402Y-2.9772
X3.9429Y-2.7177
X3.9646Y-3.185
X4.1189Y-2.6264
X4.1752Y-2.4677
X4.1831Y-3.1065
X4.215Y-3.078
X4.2201Y-2.5937
X4.2217Y-2.6772
X4.2343Y-3.0205
X4.2354Y-2.9681
X4.2421Y-2.9161
X4.3197Y-2.5252
X4.3382Y-3.1157
X4.3433Y-2.7311
X4.3617Y-2.5235
X4.3783Y-4.3406
X4.3839Y-3.0736
X4.4382Y-3.8122
X4.4472Y-4.3394
X4.4697Y-2.9008
X4.4917Y-3.2559
X4.4917Y-3.8976
X4.4951Y-2.9308
X4.5008Y-4.4161
X4.5181Y-2.8114
X4.5252Y-3.1811
X4.5472Y-2.7071
X4.5575Y-3.9232
X4.5874Y-3.2197
X4.5972Y-3.9256
X4.6295Y-2.6028
X4.6567Y-3.55
X4.6567Y-3.615
X4.7287Y-2.7594
X4.7343Y-4.5957
X4.7575Y-3.8602
X4.7764Y-3.6331
X4.8138Y-4.1437
X4.8168Y-4.1829
X4.8386Y-3.7665
X4.848Y-2.7756
X4.8591Y-2.5016
X4.861Y-2.8988
X4.8618Y-4.4224
X4.8622Y-2.9571
X4.8768Y-2.8472
X4.9689Y-3.0335
X4.9728Y-3.3217
X4.974Y-4.526
X4.9815Y-3.3717
X4.9827Y-3.6114
X4.9835Y-3.5539
X4.9858Y-4.0772
X4.9909Y-2.648
X4.9988Y-3.7031
X5.0488Y-3.4323
X5.0512Y-3.5819
X5.063Y-2.8858
X5.0816Y-4.5061
X5.1323Y-4.5803
X5.1343Y-4.2154
X5.1429Y-2.6417
X5.1492Y-2.9953
X5.1508Y-3.1626
X5.1732Y-2.8882
X5.1984Y-2.6417
X5.3008Y-4.5043
X5.3087Y-3.9327
X5.3614Y-4.2126
X5.3661Y-2.8154
X5.4035Y-3.6382
X5.4047Y-3.549
X5.4094Y-2.6425
X5.4193Y-4.2837
X5.4461Y-3.8283
X5.45Y-4.0752
X5.4705Y-2.4811
X5.485Y-3.2654
X5.4917Y-4.2291
X5.513Y-4.0531
X5.5169Y-3.8976
X5.5272Y-3.3642
X5.5311Y-4.1012
X5.5787Y-4.2197
X5.5945Y-4.1051
X5.5948Y-2.8575
X5.5976Y-3.8543
X5.6031Y-3.2953
X5.6071Y-2.8201
X5.6146Y-3.0055
X5.615Y-3.0469
X5.6352Y-4.0959
X5.6409Y-4.4594
X5.65Y-3.9579
X5.6811Y-3.6437
X5.6957Y-3.1622
X5.7008Y-2.6429
X5.7016Y-3.3803
X5.7079Y-3.7226
X5.7382Y-4.0906
X5.7673Y-3.4193
X5.7744Y-4.0528
X5.8067Y-3.4193
X5.8295Y-2.9787
X5.8348Y-3.1287
X5.8421Y-3.635
X5.846Y-3.4189
X5.8465Y-4.565
X5.8722Y-3.6705
X5.881Y-2.9718
X5.8819Y-4.0504
X5.885Y-4.3476
X5.8959Y-3.2437
X5.9248Y-3.6528
X5.9256Y-4.3417
X5.9469Y-3.1717
X5.9583Y-3.6276
X5.9626Y-2.6386
X5.9642Y-3.1055
X5.9646Y-3.576
X5.974Y-3.2634
X5.9839Y-3.3819
X5.9945Y-4.4315
X5.9945Y-4.478
X5.9969Y-3.4425
X5.9984Y-3.6976
X6.0118Y-2.6378
X6.0228Y-3.9161
X6.0508Y-4.4205
X6.0673Y-3.2807
X6.0799Y-2.7591
X6.1185Y-3.8366
X6.1562Y-4.5513
X6.1594Y-2.5295
X6.1594Y-2.6524
X6.165Y-4.1728
X6.1724Y-4.4465
X6.1984Y-3.6319
X6.2012Y-3.7157
X6.2539Y-3.8728
X6.2571Y-3.4079
X6.2583Y-3.8244
X6.2591Y-3.2807
X6.2909Y-4.202
X6.2988Y-3.9087
X6.3441Y-4.4776
X6.3549Y-3.4444
X6.365Y-3.1992
X6.3654Y-3.1528
X6.3831Y-4.4441
X6.5142Y-3.9217
X6.5232Y-4.2701
X6.5303Y-4.2201
X6.592Y-3.347
X6.615Y-3.5256
X6.6543Y-3.5163
X6.6925Y-3.1976
X6.7508Y-3.9256
X6.8232Y-3.6114
X6.9606Y-4.0921
X6.9642Y-4.4634
X6.9768Y-3.3406
X7.0984Y-4.2539
X7.0988Y-4.0965
X7.1654Y-2.8358
X7.2138Y-3.3728
X7.2142Y-4.0531
X7.2283Y-3.9791
X7.2858Y-3.5783
X7.3004Y-4.2531
X7.3673Y-3.2469
X7.3862Y-3.9614
X7.4307Y-2.9504
X7.452Y-4.4783
X7.5083Y-4.2
X7.5303Y-4.0913
X7.5411Y-2.8848
X7.6248Y-3.8626
T4
X3.9169Y-2.504
X3.9173Y-4.5929
X3.9428Y-2.4413
X3.9428Y-2.5666
X3.9433Y-4.5303
X3.9433Y-4.6556
X4.0055Y-2.4154
X4.0055Y-2.5926
X4.0059Y-4.5043
X4.0059Y-4.6815
X4.0681Y-2.4413
X4.0681Y-2.5666
X4.0685Y-4.5303
X4.0685Y-4.6556
X4.0941Y-2.504
X4.0945Y-4.5929
X5.2795Y-3.0406
X5.2795Y-3.1154
X7.574Y-4.5882
X7.5779Y-2.5063
X7.6Y-4.5256
X7.6Y-4.6508
X7.6039Y-2.4437
X7.6039Y-2.569
X7.6626Y-4.4996
X7.6626Y-4.6768
X7.6665Y-2.4178
X7.6665Y-2.5949
X7.7252Y-4.5256
X7.7252Y-4.6508
X7.7291Y-2.4437
X7.7291Y-2.569
X7.7512Y-4.5882
X7.7551Y-2.5063
T5
X4.222Y-4.039
X4.3205Y-4.039
X5.2858Y-3.4307
X5.2858Y-3.5803
T6
X7.5736Y-3.339
X7.5736Y-3.439
X7.5736Y-3.539
X7.5736Y-3.639
X7.5736Y-3.739
X7.6736Y-3.339
X7.6736Y-3.439
X7.6736Y-3.539
X7.6736Y-3.639
X7.6736Y-3.739
T7
X4.0055Y-2.504
X4.0059Y-4.5929
X7.6626Y-4.5882
X7.6665Y-2.5063
T3
G00X7.678Y-2.7953
M15
G01X7.7094Y-2.7953
M16
G05
G00X7.7094Y-3.0768
M15
G01X7.678Y-3.0768
M16
G05
G00X7.6811Y-4.0004
M15
G01X7.7126Y-4.0004
M16
G05
G00X7.7126Y-4.2819
M15
G01X7.6811Y-4.2819
M16
G05
T6
G00X4.0728Y-3.3728
M15
G01X4.0138Y-3.3728
M16
G05
G00X4.0728Y-3.7272
M15
G01X4.0138Y-3.7272
M16
G05
G00X4.0827Y-3.5244
M15
G01X4.0827Y-3.5756
M16
G05
G00X4.3189Y-3.5106
M15
G01X4.3189Y-3.5894
M16
G05
T0
M30
